<svg data-name="Capa 1" xmlns="http://www.w3.org/2000/svg" viewBox="0 0 141.73 141.73"><path d="M15.86 33a10.76 10.76 0 01.71-4.08 8.32 8.32 0 014.9-4.71 13.29 13.29 0 014.33-.68 12.91 12.91 0 014.2.67 8 8 0 014.13 3.37 8.32 8.32 0 01.87 2.16 10.94 10.94 0 01.29 2.6 11.82 11.82 0 01-.83 4.47 8.09 8.09 0 01-1.8 2.73A8.39 8.39 0 0130 41.35a12.3 12.3 0 01-4.74.86 10.87 10.87 0 01-4.95-1A7.68 7.68 0 0117 38.09 10 10 0 0115.86 33zm44.88-11.55a7.48 7.48 0 01.49-2.84 5.78 5.78 0 013.4-3.27 9.24 9.24 0 013-.47 9 9 0 012.94.45 5.56 5.56 0 012.87 2.34 5.78 5.78 0 01.59 1.5 7.6 7.6 0 01.2 1.81 8.21 8.21 0 01-.58 3.1A5.62 5.62 0 0172.41 26a5.83 5.83 0 01-1.87 1.27 8.55 8.55 0 01-3.29.6 7.55 7.55 0 01-3.44-.72A5.33 5.33 0 0161.56 25a6.94 6.94 0 01-.82-3.55zM12.48 63.16a3.74 3.74 0 01.25-1.42 2.89 2.89 0 011.7-1.64 4.62 4.62 0 011.5-.24 4.48 4.48 0 011.47.23 2.78 2.78 0 011.44 1.17 2.89 2.89 0 01.3.75 3.8 3.8 0 01.1.9 4.11 4.11 0 01-.29 1.55 2.81 2.81 0 01-.62.95 2.91 2.91 0 01-.94.64 4.27 4.27 0 01-1.65.3A3.78 3.78 0 0114 66a2.67 2.67 0 01-1.13-1.07 3.47 3.47 0 01-.39-1.77zm17.88-52.7A3.74 3.74 0 0130.61 9a2.89 2.89 0 011.7-1.64 4.62 4.62 0 011.5-.24 4.48 4.48 0 011.47.23 2.78 2.78 0 011.44 1.17 2.89 2.89 0 01.3.75 3.8 3.8 0 01.1.9 4.11 4.11 0 01-.29 1.55 2.81 2.81 0 01-.62.95 2.91 2.91 0 01-.94.64 4.27 4.27 0 01-1.65.3 3.78 3.78 0 01-1.72-.36 2.67 2.67 0 01-1.13-1.07 3.47 3.47 0 01-.41-1.72zm8.38 59.81a36.83 36.83 0 012.43-14 28.48 28.48 0 0116.76-16.09 45.5 45.5 0 0114.81-2.32 44.17 44.17 0 0114.46 2.23 27.38 27.38 0 0114.15 11.52 28.46 28.46 0 012.91 7.4 37.44 37.44 0 011 8.89 40.46 40.46 0 01-2.86 15.3 27.7 27.7 0 01-6.16 9.33A28.7 28.7 0 0187 98.79a42.11 42.11 0 01-16.21 2.94 37.2 37.2 0 01-16.93-3.57 26.27 26.27 0 01-11.09-10.54q-4.03-6.96-4.03-17.35zm13.49-2.58q0 10.21 2.8 16.89T62.22 94a19 19 0 0010.34 2.76 18.75 18.75 0 009.88-2.63q4.36-2.63 6.83-8.89a41.44 41.44 0 002.48-15.2 44.07 44.07 0 00-1.34-11.22 26.9 26.9 0 00-3.83-8.65 17.66 17.66 0 00-5.89-5.45 18.54 18.54 0 00-9-1.88 19.14 19.14 0 00-10.89 3 16.93 16.93 0 00-6.53 8.87 39.34 39.34 0 00-2.03 12.98zm73.64 41.02a10.76 10.76 0 01-.71 4.08 8.32 8.32 0 01-4.9 4.71 13.29 13.29 0 01-4.33.68 12.91 12.91 0 01-4.22-.65 8 8 0 01-4.13-3.37 8.32 8.32 0 01-.85-2.16 10.94 10.94 0 01-.29-2.6 11.82 11.82 0 01.83-4.47 8.09 8.09 0 011.8-2.73 8.39 8.39 0 012.69-1.83 12.3 12.3 0 014.74-.86 10.87 10.87 0 014.95 1 7.68 7.68 0 013.24 3.08 10 10 0 011.18 5.12zM81 120.28a7.48 7.48 0 01-.49 2.84 5.78 5.78 0 01-3.4 3.27 9.24 9.24 0 01-3 .47 9 9 0 01-2.94-.45 5.56 5.56 0 01-2.87-2.34 5.78 5.78 0 01-.59-1.5 7.6 7.6 0 01-.2-1.81 8.21 8.21 0 01.58-3.1 5.62 5.62 0 011.25-1.89 5.83 5.83 0 011.87-1.27 8.55 8.55 0 013.29-.6 7.55 7.55 0 013.44.72 5.33 5.33 0 012.25 2.14 6.94 6.94 0 01.81 3.52zm48.25-41.71A3.74 3.74 0 01129 80a2.89 2.89 0 01-1.7 1.64 4.62 4.62 0 01-1.5.24 4.48 4.48 0 01-1.47-.23 2.78 2.78 0 01-1.44-1.17 2.89 2.89 0 01-.3-.75 3.8 3.8 0 01-.1-.9 4.11 4.11 0 01.29-1.55 2.81 2.81 0 01.62-.95 2.91 2.91 0 01.94-.64 4.27 4.27 0 011.65-.3 3.78 3.78 0 011.72.36 2.67 2.67 0 011.13 1.07 3.47 3.47 0 01.41 1.75zm-17.88 52.7a3.74 3.74 0 01-.25 1.42 2.89 2.89 0 01-1.7 1.64 4.62 4.62 0 01-1.5.24 4.48 4.48 0 01-1.47-.23 2.78 2.78 0 01-1.44-1.17 2.89 2.89 0 01-.3-.75 3.8 3.8 0 01-.1-.9 4.11 4.11 0 01.29-1.55 2.81 2.81 0 01.62-.95 2.91 2.91 0 01.94-.64 4.27 4.27 0 011.65-.3 3.78 3.78 0 011.72.36 2.67 2.67 0 011.13 1.07 3.47 3.47 0 01.41 1.76z" fill="#f8b83e"/></svg>